<?xml version="1.0" encoding="UTF-8"?>
<svg id="Layer_1" data-name="Layer 1" xmlns="http://www.w3.org/2000/svg" viewBox="0 0 1000 1000">
  <defs>
    <style>
      .cls-1 {
        fill: #fff5e1;
      }
    </style>
  </defs>
  <g>
    <path class="cls-1" d="M57.77,626.61c9.34,4.52,27.55,10.2,48.61.48,12.19-5.63,21.85-15.39,28.55-27.02,15.99-27.77,50.95-113.04-19.09-208.91-3.84-5.25-8.42-9.97-13.75-13.7-7.37-5.16-15.3-8.06-24.35-6.2-4.39.9-8.27,5.25-8.61,9.72l-17.55,234.98c-.33,4.49,2.12,8.69,6.17,10.65ZM94.05,415.7c.07-1.33,1.76-1.83,2.57-.76,40.3,53.38,34.66,139.44-10.11,182.92-.93.91-2.49.21-2.42-1.09l9.97-181.07Z"/>
    <path class="cls-1" d="M247.54,464.69c1.89,16.15-1.23,32.96-9.02,48.61-.01.03-.03.05-.04.08-2.54,5.12-4.17,10.63-4.97,16.29-1.93,13.63-3.79,38.98,5.65,54.19,2.97,4.78,8.85,6.73,14.08,4.66,19.92-7.92,34.77-26.04,39.18-47.89,7.48-37.04-4.78-83.41-29.96-108.5-4.65-4.63-10.45-7.95-16.84-9.46-2.38-.56-4.65-.96-6.83-1.21-2.94-.34-5.04,2.82-3.63,5.42,5.73,10.58,10.63,22.87,12.37,37.81ZM258.41,503.86c5-13.76,6.05-28.61,4.7-44.11-.22-2.54,3.15-3.67,4.44-1.47,14.25,24.27,18.28,53.4,9.4,88.68-1.26,5-3.52,9.74-6.89,13.63-3.24,3.75-6.65,5.85-10.21,6.54-4.5.87-8.76-2-9.74-6.47-3.14-14.35.56-34.01,8.32-56.8Z"/>
    <path class="cls-1" d="M207.65,584.93c.77.62,1.59,1.18,2.46,1.68,2.88,1.65,6.09,3.32,9.5,4.21,3.29.86,5.63-3.12,3.24-5.52-12.39-12.48-15.49-33.7-13-51.42,2.03-8.21,5.47-16.95,10.83-26.1,5.31-9.05,9.29-18.84,11.96-28.99,1.07-4.06,2-8.27,2.78-12.68,2.17-7.45-6.19-30.78-13.73-38.28-2.26-2.25-5.13-3.69-7.98-2.25-5.28,2.67-9.6,6.24-13.2,9.83-7.47,7.46-13.18,16.5-16.95,26.36-13.43,35.09-7.93,78.3,11.44,109.83,3.3,5.37,7.63,9.87,12.64,13.33Z"/>
    <path class="cls-1" d="M288.11,595.48c4.54,12.48,14.24,23.88,26.61,31.26,6.23,3.72,13.17,5.59,20.01,5.59,6.2,0,12.32-1.54,17.74-4.63,13.66-7.77,22.54-19.3,27.97-36.27l.18-.61c4.83-18.09,2.6-34.37-2.82-49.32-5.75-21.56-23.08-64.9-23.08-64.9-12.74-42.29,1.75-44.13,5.87-43.86,4.14,2.2,8.52,6.09,13.1,11.69,4.53,5.54,12.7,6.35,18.23,1.82,5.54-4.53,6.35-12.7,1.82-18.24-14.68-17.93-30.56-25.58-47.2-22.78-11.77,1.99-22.36,9.68-28.33,20.57-12.85,23.45-7.77,44.9,2,64.57l-.08.06s21.86,56.48,23.44,90.69c-.29,6.08-1.87,16.73-8.79,24.85-.41.14-.83.26-1.28.36-1.85-.19-3.74-.8-5.51-1.85-10.72-6.4-14.6-15.29-15.54-17.86-2.45-6.73-9.88-10.19-16.6-7.75-6.73,2.45-10.2,9.88-7.75,16.6Z"/>
  </g>
  <g>
    <path class="cls-1" d="M936.88,512.01c-9.35-20.26-33.84-59.98-33.84-59.98-19.8-39.5-5.82-43.78-1.71-44.22,4.46,1.46,9.43,4.55,14.9,9.27,5.41,4.68,13.6,4.08,18.28-1.33,4.68-5.41,4.08-13.6-1.33-18.28-17.53-15.15-34.49-19.98-50.4-14.36-11.25,3.97-20.37,13.36-24.39,25.11-8.65,25.3.03,45.57,13.02,63.28l-.07.07s31.21,51.91,38.62,85.34c.76,6.04,1.02,16.8-4.41,25.99-.38.21-.78.4-1.2.58-1.85.13-3.82-.15-5.74-.89-11.65-4.46-17-12.56-18.37-14.94-3.56-6.21-11.48-8.35-17.69-4.79-6.21,3.56-8.35,11.48-4.79,17.69,6.61,11.52,18.12,21.09,31.57,26.24,4.62,1.77,9.42,2.64,14.15,2.64,8.48,0,16.71-2.79,23.21-8.15,12.12-10,18.91-22.87,21.35-40.52l.07-.63c1.67-18.65-3.32-34.31-11.23-48.11Z"/>
    <path class="cls-1" d="M553.27,427.45c8.87-1.71,17.92-2.85,27.12-3.48,10.45-.72,16.96-12.09,11.75-21.17-.05-.09-.11-.19-.16-.28-2.54-4.29-7.26-6.82-12.24-6.85-48.97-.28-91.15,9.78-124.77,32.89-4.64,3.19-6.89,8.86-5.9,14.39,2.2,12.38,10.26,18.47,22.96,19.57,3.54.31,7.07-.84,9.85-3.05,14.34-11.36,29.68-19.5,45.78-25.16-1.63,63.78-.34,125.18,4.33,183.82.25,3.11,2.09,5.91,4.91,7.25,9.43,4.48,17.43,3.12,24-4.04,1.76-1.92,2.55-4.54,2.21-7.12-8.05-61.09-11.23-123.38-9.86-186.78Z"/>
    <path class="cls-1" d="M629.02,407.45c-7.41-.2-14.4,3.56-18.25,9.88-40.65,66.73-31.61,154.34-31.2,158.03.81,7.41,7.08,12.9,14.38,12.9.52,0,1.05-.03,1.58-.09,7.95-.86,13.69-8.01,12.84-15.95-.04-.39-1.99-19.63.05-45.97l39.44-8.95c2.02,16.06,2.53,33.48.44,51.71-.91,7.95,4.79,15.13,12.74,16.04,7.95.89,15.13-4.79,16.04-12.74,8.17-71.32-18.58-131.38-30.46-153.89-3.45-6.54-10.19-10.74-17.59-10.97ZM611.9,498.58c3.03-17.05,8.02-35.17,16.06-52.16,5.76,13.03,12.37,30.97,16.76,52.16h-32.83Z"/>
    <path class="cls-1" d="M803.03,386.93c-7.4-.29-14.4,3.56-18.25,9.88-40.65,66.72-31.61,154.33-31.2,158.03.81,7.41,7.08,12.9,14.38,12.9.52,0,1.05-.03,1.58-.09,7.95-.86,13.69-8.01,12.84-15.95-.04-.39-1.99-19.63.05-45.97l39.44-8.95c2.02,16.06,2.53,33.48.44,51.7-.91,7.95,4.79,15.13,12.74,16.04,7.94.9,15.13-4.79,16.04-12.74,8.17-71.31-18.58-131.38-30.46-153.89-3.45-6.54-10.19-10.75-17.59-10.97ZM785.91,478.05c3.03-17.05,8.01-35.17,16.06-52.16,5.76,13.03,12.37,30.97,16.76,52.16h-32.83Z"/>
    <path class="cls-1" d="M775.67,582.77c-2.8-1.53-6.12-1.79-9.23-1.07l-48.05,11.12c-1.14.26-2.12-.84-1.74-1.95,25.95-75.95,29.99-104.29,33.48-198.22-.75-12.19-5.15-18.43-13.99-17.41-1.44.17-2.86.59-4.22,1.1-27.59,10.46-49.29,17.06-59.45,16.13-1.59-.15-3.23.27-4.31,1.45-1.53,1.67-1.51,3.98.76,7.21,11.57,9.1,26.74,9.69,43.34,6.88,1.73-.29,3.24,1.2,2.98,2.93-10.25,68.76-23.48,134.84-33.83,199.44-.05,7.72,4.88,10.54,13.39,9.81l75.03-14.37c6.82-1.31,11.79-7.48,11.21-14.4-.33-3.97-2.1-6.87-5.37-8.66Z"/>
  </g>
</svg>