<?xml version="1.0" encoding="UTF-8"?>
<svg id="Layer_1" data-name="Layer 1" xmlns="http://www.w3.org/2000/svg" viewBox="0 0 1000 1000">
  <defs>
    <style>
      .cls-1 {
        fill: #fff;
      }
    </style>
  </defs>
  <g>
    <path class="cls-1" d="M452.69,358.25l-34.37-80.78c-2.65-6.23-8.85-8.96-11.97-5.27l-12.85,15.21c-2.38,2.81-1.91,8.28,1.06,12.4l47.22,65.57c6.3,8.74,15.19,2.92,10.91-7.14Z"/>
    <path class="cls-1" d="M443.66,379.61l-56.28-39.33c-4.34-3.03-10.07-1.38-11.05,3.19l-4.05,18.84c-.75,3.48,1.65,7.24,5.45,8.53l60.34,20.49c8.04,2.73,12.61-6.83,5.6-11.73Z"/>
    <path class="cls-1" d="M473.42,292.73l-5.01,35.87c-1.08,7.72-10.47,6.93-12.83-1.07l-10.69-36.29c-1.45-4.93,1.11-9.45,5.29-9.34l15.7.41c4.44.12,8.24,5.37,7.54,10.42Z"/>
  </g>
  <g>
    <path class="cls-1" d="M548.61,621.49l9.8,87.24c.76,6.73-3.3,12.15-7.83,10.47l-18.67-6.92c-3.45-1.28-5.73-6.27-5.17-11.32l8.88-80.31c1.18-10.71,11.79-10.02,13.01.85Z"/>
    <path class="cls-1" d="M519.09,639.08l-19.57,65.82c-1.51,5.08-7.02,7.34-10.63,4.38l-14.9-12.23c-2.76-2.26-3.22-6.7-1.05-10.07l34.47-53.59c4.6-7.14,14.12-2.5,11.68,5.69Z"/>
    <path class="cls-1" d="M591.94,629.44l-24.43-26.74c-5.26-5.76-12.56.21-9.97,8.15l11.72,35.97c1.59,4.88,6.26,7.16,9.65,4.71l12.71-9.23c3.6-2.61,3.76-9.09.32-12.85Z"/>
  </g>
  <path class="cls-1" d="M186.53,536.53l14.39,4.71c12.04,3.94,25.04.79,33.94-8.22l16.52-16.73c3.39-3.43,5.79-7.54,7.13-11.93-.01-.03-.03-.05-.04-.08-1.02-2.42-.44-5.1,1.25-6.89.22-4.31-.53-8.7-2.31-12.86l-5.97-13.98c-1.69-3.96-5.01-7-9.11-8.34l-42.54-13.92c-4.1-1.34-8.57-.85-12.28,1.35l-13.07,7.75c-10.17,6.03-15.63,17.49-13.9,29.19l3.44,23.26c1.85,12.53,10.48,22.75,22.52,26.69ZM179.81,480.04c6.8-4.4,16.73-4.88,25.92-1.24,8.77,3.47,15.4,10.01,17.74,17.49.62,1.99-.49,4.11-2.48,4.74-.06.02-.13.04-.19.05-1.94.49-3.94-.61-4.55-2.54-1.63-5.24-6.73-10.11-13.3-12.71-6.85-2.71-14.32-2.49-19.03.55-1.76,1.13-4.1.63-5.23-1.12-1.14-1.75-.63-4.1,1.12-5.23Z"/>
  <path class="cls-1" d="M435.03,567.06c-2.03,4.98-5.05,9.61-8.99,13.61l-16.52,16.73c-12.33,12.48-30.35,16.85-47.03,11.39l-14.39-4.71c-16.68-5.46-28.63-19.63-31.2-36.98l-3.44-23.26c-1.18-7.98-.04-15.88,3.04-22.92-10.74-17.15-25.24-21.97-45.13-14.98-1.77,7.14-5.43,13.84-10.86,19.34l-16.52,16.73c-12.33,12.48-30.35,16.85-47.03,11.39l-14.39-4.71c-6.83-2.23-12.86-5.93-17.79-10.71-4.1,43.25.02,81.21,12.51,115.58,23.2,31.88,51.89,53.58,85.29,64.51,33.59,10.99,73.1,11.49,117.44,1.5,31.28-20.43,57.76-50.11,80.9-90.67,10.88-19.07,21.11-40.7,31.16-66.01l-56.62,4.16c-.14,0-.27,0-.41,0ZM251.06,568.78c7.16-16.91,18.96-34.97,36.09-55.22,1.35-1.59,3.74-1.79,5.33-.45,1.59,1.35,1.79,3.74.45,5.33-16.62,19.66-28.04,37.09-34.9,53.29-1.39,3.29-.62,7.12,1.92,9.54,7.02,6.69,16.62,10.59,28.55,11.6,3.09.26,6.04-.04,8.77-.89,2.67-.83,4.36-1.93,4.77-3.08.43-1.19-.22-3.21-1.83-5.67-.55-.8-2.02-2.8-8.83.09-1.92.82-4.14-.08-4.96-2-.82-1.92.08-4.14,2-4.96,5.75-2.44,13.55-3.96,18.05,2.64l.04.06c3.04,4.64,3.92,8.81,2.64,12.39-1.27,3.54-4.51,6.14-9.64,7.75-3.67,1.15-7.59,1.56-11.66,1.21-5.33-.45-10.27-1.42-14.82-2.91-7.12-2.33-13.25-5.92-18.32-10.75-4.81-4.58-6.28-11.8-3.67-17.97ZM192.65,585.8c-3.49,8.13-5.88,6.91-7.45,3.2-2.83-6.68-.05-14.43,6.23-18.05,6.74-3.88,16.33-8.19,25.06-7.72,2.42.13,2.83,3.55.49,4.2-8.01,2.23-19.58,7.28-24.34,18.37ZM246.41,674.31c-2.06-2.98-5.59-4.65-9.2-4.24-9.38,1.07-14.72,9.4-22.09,4.46-1.85-1.24-3.01-3.27-3.14-5.49-.42-7.31,5.88-11.97,20.49-13.37,9.54-.91,18.81,4,23.17,12.54,3.27,6.41,4.54,14.14,6.33,21.53-1.84,3.67-7.33-3.54-15.56-15.42ZM351,641.24c-.65.13-1.3.08-1.89-.12-1.26-.41-2.27-1.48-2.54-2.88-.31-1.62-.66-3.12-1.09-4.5-.51,1.31-1.37,2.49-2.56,3.39-12.33,9.36-23.86,15.32-36.27,18.77l-.47.13h-.49c-16.71.26-31.99-1.88-45.75-6.38-12.25-4.01-23.29-9.88-33.03-17.61l-.47-.37-.33-.5c-6.85-10.28-10.9-22.32-12.38-36.8-.13-1.27.04-2.49.47-3.6-1.19.85-2.39,1.91-3.63,3.19-1.04,1.08-2.57,1.4-3.9.97-.53-.17-1.02-.46-1.45-.88-1.5-1.45-1.54-3.85-.09-5.35,9.19-9.5,17.83-9.79,27.98-7.29,2.03.49,3.27,2.55,2.77,4.58-.5,2.03-2.55,3.27-4.58,2.77-1.65-.41-3.2-.72-4.68-.91.12.11.24.22.35.34,6.84,7.05,18.77,17.06,36.79,24.7,21.42,9.08,46.09,12.58,73.32,10.4-1.15-.61-2.45-1.18-3.91-1.69-1.97-.69-3.01-2.85-2.32-4.82.68-1.95,2.79-2.98,4.74-2.35.03,0,.05.02.07.03,12.48,4.37,16.35,12.1,18.33,22.36.4,2.05-.95,4.03-3,4.43ZM364.46,672.55c-6.25.72-10.11-1.2-3.03-10.74,9.65-13.01,5.06-29.74.26-40.46-1.4-3.12,3.37-4.98,5.85-2.29,8.94,9.72,12.58,23.67,14.06,34.04,1.38,9.68-5.89,18.15-17.14,19.45Z"/>
  <path class="cls-1" d="M166.56,447.23l-4.19-.77-37.14-7.59c-14.3,41.78-21.57,69.81-23.57,90.89-2.49,26.22,4.03,35.87,9.15,40.85.69.67,1.35,1.32,2,1.96,5.15,5.07,7.74,7.61,14.08,10.14,6.72,2.68,14.12,3.68,21.64,2.96-1.14-21.04-.05-43.27,3.26-66.94l1.21.17c-.73-2.32-1.29-4.72-1.66-7.19l-3.44-23.26c-2.42-16.33,4.88-32.33,18.66-41.22Z"/>
  <path class="cls-1" d="M338.24,630.78c-28.68,2.37-54.72-1.32-77.43-10.94-19.18-8.13-31.94-18.84-39.26-26.4-.04-.05-.07-.06-.07-.06-.06-.01-.2.06-.23.11,0,0,0,.04,0,.09,1.33,12.99,4.88,23.76,10.83,32.89,19.37,15.16,43.26,22.36,73,22,11.29-3.2,21.87-8.73,33.25-17.37.06-.04.08-.07.08-.08.02-.06-.04-.21-.09-.25,0,0-.03,0-.1,0Z"/>
  <path class="cls-1" d="M766.43,380.17c1.72-2.12,1.4-5.24-.72-6.96-2.12-1.72-5.23-1.4-6.96.72l-14.84,18.25c-1.72,2.12-1.4,5.24.72,6.96,1.06.86,2.37,1.21,3.63,1.08s2.47-.74,3.33-1.8l14.84-18.25Z"/>
  <path class="cls-1" d="M612.07,398.59c1.72-2.12,1.4-5.24-.72-6.96-2.12-1.72-5.23-1.4-6.96.72l-14.84,18.25c-1.72,2.12-1.4,5.24.72,6.96,1.06.86,2.37,1.21,3.63,1.08,1.26-.13,2.47-.74,3.33-1.8l14.84-18.25Z"/>
  <path class="cls-1" d="M565.33,389.9l6.13-8.65c3.56-5.02,9.11-8.26,15.23-8.89l38.49-3.97c6.12-.63,12.22,1.41,16.72,5.6l7.77,7.21c2.65,2.46,4.86,5.27,6.6,8.3,9.96-9.57,20.44-14.86,31.22-15.75,8.02-.67,16.18,1.08,24.38,5.22,1.09-3.34,2.68-6.56,4.79-9.53l6.13-8.65c3.56-5.02,9.11-8.26,15.23-8.89l38.49-3.97c6.12-.63,12.22,1.41,16.72,5.6l7.77,7.21c2.62,2.43,4.8,5.19,6.53,8.18l32-24.66c-.79-14.31-2.1-29.62-3.93-46.12l-.07-.64.04-.64c.03-.59.02-1.2-.04-1.79-.41-3.93-2.8-7.38-7.12-10.26-3.12-2.08-7.19-3.81-12.44-5.31-8.93-2.54-21.25-4.34-36.61-5.33-30.55-1.98-70.63-.67-112.85,3.68-42.22,4.35-81.72,11.25-111.23,19.42-14.84,4.11-26.53,8.38-34.75,12.69-4.84,2.54-8.47,5.07-11.1,7.73-3.64,3.7-5.29,7.57-4.88,11.5v.06c2.12,22.22,4.53,40.74,7.07,56.37l48.74,14.37c1.09-3.55,2.74-6.97,4.97-10.11ZM514.92,333.21c-1.68-16.27,66.65-36.64,152.61-45.51,85.96-8.86,157.01-2.86,158.69,13.42,1.68,16.27-66.65,36.64-152.61,45.51-85.96,8.86-157.01,2.86-158.69-13.41Z"/>
  <path class="cls-1" d="M752.07,414.88c1.06.86,2.37,1.21,3.63,1.08,1.26-.13,2.47-.74,3.33-1.8l25.05-30.81c1.72-2.12,1.4-5.24-.72-6.96-2.12-1.72-5.23-1.4-6.96.72l-25.05,30.81c-1.72,2.12-1.4,5.24.72,6.96Z"/>
  <path class="cls-1" d="M597.71,433.29c1.06.86,2.37,1.21,3.63,1.08,1.26-.13,2.47-.74,3.33-1.8l25.05-30.81c1.72-2.12,1.4-5.23-.72-6.96-2.12-1.72-5.23-1.4-6.96.72l-25.05,30.81c-1.72,2.12-1.4,5.23.72,6.96Z"/>
  <path class="cls-1" d="M352.07,591.92l14.39,4.71c12.04,3.94,25.04.79,33.94-8.22l16.52-16.73c8.31-8.41,10.68-20.88,6.04-31.76l-5.97-13.98c-1.69-3.96-5.01-7-9.11-8.34l-42.54-13.92c-4.1-1.34-8.57-.85-12.28,1.35l-13.07,7.75c-3.9,2.31-7.11,5.42-9.48,9.04-.13,1.76-.99,3.43-2.44,4.55-2.04,4.8-2.78,10.17-1.98,15.59l3.44,23.26c1.85,12.53,10.48,22.75,22.52,26.69ZM345.99,539.69c6.8-4.4,16.73-4.88,25.92-1.24,8.77,3.47,15.4,10.01,17.74,17.49.62,1.99-.49,4.11-2.48,4.74-.06.02-.13.04-.19.05-1.94.49-3.94-.61-4.55-2.54-1.63-5.24-6.73-10.11-13.3-12.71-6.85-2.71-14.32-2.49-19.03.55-1.76,1.13-4.1.63-5.23-1.12-1.14-1.75-.63-4.1,1.12-5.23Z"/>
  <path class="cls-1" d="M651.33,511.94c31.01,21.95,60.56,18.45,90.1-10.67-30.44,10.2-60.71,13.79-90.1,10.67Z"/>
  <path class="cls-1" d="M504.89,471.27c-6.97-6.32-17.34-13.29-30.82-20.71-26.88-14.79-63.87-30.2-104.16-43.38-40.29-13.18-79.24-22.61-109.66-26.56-15.27-1.98-27.75-2.49-37.11-1.51-5.5.58-9.91,1.66-13.49,3.3-5.22,2.4-8.64,5.96-10.15,10.6-5.3,15.83-9.82,30.14-13.71,43.39,5.76-2.07,12.1-2.2,18.01-.27l42.54,13.92c7.6,2.49,13.76,8.13,16.9,15.49l5.97,13.98c1.76,4.14,2.82,8.43,3.21,12.73,21.28-5.74,38.86.09,51.66,17.13,2.71-2.92,5.86-5.49,9.41-7.6l13.07-7.75c6.88-4.08,15.18-4.99,22.78-2.5l42.54,13.92c7.6,2.49,13.76,8.13,16.9,15.49l5.97,13.98c1.92,4.5,3.01,9.2,3.3,13.88l61.13-4.49c5.09-13.82,10.17-28.66,15.28-44.68l.17-.54.25-.51c.34-.68.63-1.39.86-2.11,1.52-4.64.87-9.53-1.93-14.55-1.91-3.44-4.83-6.91-8.93-10.63ZM506.35,493.37c-5.09,15.55-75.79,6.37-157.93-20.5-82.14-26.87-144.6-61.25-139.51-76.8,5.09-15.55,75.79-6.37,157.93,20.5,82.14,26.87,144.6,61.25,139.51,76.8Z"/>
  <path class="cls-1" d="M840.38,366.41l-28.09,21.64c-.14,3.74-.88,7.49-2.24,11.11l-5.9,15.65c-5.29,14.04-18.07,23.89-33,25.43l-9.03.93c-14.93,1.54-29.44-5.49-37.49-18.16l-8.97-14.12c-3.29-5.18-5.1-10.99-5.45-16.85-4.35-2.67-8.61-4.49-12.76-5.43,11.23,21.74,18.28,40.64,21.5,57.66,1.25,6.58-1.72,13.33-7.39,16.78-5.97,3.64-12.73,5.86-20.18,6.62-4.75.49-9.79.39-15.1-.3-4.05-.53-7.8-1.76-11.14-3.65-4.67-2.65-7.29-5.89-7.78-9.61-.5-3.78,1.26-7.66,5.21-11.55l.05-.05c5.8-5.5,13.1-2.36,18.2,1.24,1.71,1.2,2.11,3.56.91,5.27-1.2,1.71-3.57,2.11-5.27.91-6.04-4.27-7.9-2.63-8.61-1.96-2.09,2.06-3.15,3.89-2.99,5.15.16,1.21,1.58,2.64,4.01,4.02,2.49,1.41,5.31,2.33,8.38,2.73,11.87,1.54,22.08-.24,30.36-5.28,2.99-1.83,4.56-5.41,3.9-8.92-3.27-17.28-10.73-36.74-22.82-59.47-.05-.09-.09-.19-.13-.28-.02,0-.04,0-.06,0-9.32.8-18.66,6.36-27.83,16.61.74,5.66.13,11.52-1.97,17.09l-5.9,15.65c-5.29,14.04-18.07,23.89-33,25.43l-9.03.93c-14.93,1.54-29.44-5.49-37.49-18.16l-8.97-14.12c-2.13-3.36-3.64-6.98-4.54-10.71l-44.58-13.14c4.07,20.38,8.27,34.64,11.97,45.77,12.36,37.19,29.95,67.06,53.64,91.01,6.25,5.14,16.1,9.37,23.51-5.5h0c-1.39-4.58-1.39-10.86-.21-18.59.51-3.34,5.49-4.53,6.43-1.31,4.21,14.4,21.55,41.17,40.52,38.38,2.61-1.52,4.13-3.75,5-5.83,1.32-3.16,4.39-5.23,7.81-5.08,8.85.38,17.69.12,26.46-.78,0,0,0,0,0,0,15.18-1.56,30.43-5.09,45.55-10.52,2.67-.96,5.66-.55,7.88,1.21,2.07,1.65,5.46,3.25,10.59,2.88,8.61-5.7,15.31-14,19.05-23.79,1.86-4.88,3.78-10.53,5.32-16.42.9-3.45,5.54-3.58,6.68-.19,1.46,4.31,2.2,8.67,1.97,13.12h0s1.21,21.54,20.35,4.16c.08-.07.15-.14.23-.2,15.62-25.56,25.41-55.48,29.8-90.97,2.12-17.14,3-35.7,2.63-56.42ZM601.37,473.43c-4.98,7.15-10.94,18.96-7.38,31.08,2.62,8.89-.13,9.51-3.88,7.56-6.75-3.5-9.68-11.61-7.02-18.73,2.85-7.63,7.71-17.51,15.07-22.97,2.04-1.51,4.65.98,3.2,3.06ZM760.23,501.05s-.1,0-.15.01c-3.21.21-5.92,0-8.3-.56-.29.92-.79,1.8-1.51,2.55-17.45,18.35-35.3,28.46-53.43,30.33-17.63,1.82-35.51-4.17-53.54-17.97-.71-.54-1.27-1.2-1.69-1.92-2.09.99-4.54,1.75-7.5,2.26-.08.01-.17.03-.25.04-1.96.2-3.77-1.15-4.11-3.12-.35-2.06,1.03-4.01,3.09-4.37,6.52-1.12,9.4-3.28,12.81-9.67.98-1.84,3.28-2.54,5.12-1.55,1.84.98,2.54,3.28,1.55,5.12-.39.73-.79,1.43-1.19,2.11,29.12,3.24,59.19-.37,89.47-10.75-.45-.48-.91-.96-1.36-1.48-1.38-1.56-1.24-3.95.33-5.34,1.57-1.39,3.95-1.24,5.34.33,4.79,5.42,8.09,6.86,14.7,6.44,2.08-.13,3.88,1.45,4.02,3.53.13,2.03-1.37,3.8-3.38,4ZM781.56,486.82c-1.87,1.93-3.26,3.83-4.62,1.52-2-3.42,1.31-6.78-.84-9.7-5.62-7.62-16.01-9.8-24.38-5.37-30.76,16.29-73.44,23.02-115.7,12.64-12.11-2.97-17.43,2.86-21.92,9.53-2.79,4.15-1.21,7.2-2.64,11.64-.9,2.79-4.05,1.86-4.83-.97-1.68-6.07-2.75-12.68,4.8-24.19,4.48-6.84,12.38-10.62,20.42-9.17,42.43,7.63,83.76,2.9,123.89-15.41,9.54-4.35,21.09-.65,25.76,8.74,4.65,9.34,1.96,18.75.05,20.74ZM796.12,489.72c-3.81,1.82-6.54,1.12-3.63-7.68,3.97-12-1.6-24-6.34-31.31-1.38-2.13,1.31-4.53,3.3-2.95,7.18,5.7,11.71,15.74,14.3,23.46,2.42,7.2-.78,15.21-7.64,18.49Z"/>
  <path class="cls-1" d="M855.61,354.81h-.17s-.24.18-.24.18c.97,25.99.15,48.81-2.43,69.69-3.08,24.93-8.71,47.32-17.02,67.57,8.47,3.54,17.46,4.67,26,3.24,6.73-1.13,9.8-3.06,15.91-6.92.77-.49,1.55-.98,2.37-1.49,6.06-3.78,14.47-11.83,17.6-37.98,2.51-21.03,1.35-49.97-3.78-93.82l-38.23-.46Z"/>
  <path class="cls-1" d="M320.07,756.22c-23.76,0-46.2-3.4-66.68-10.1-39.76-13-73.62-38.62-100.66-76.14l-.61-.84c-.76-1.06-1.37-2.21-1.82-3.43l-.36-.97c-3.67-9.94-6.74-20.25-9.17-30.77-9-.28-17.81-1.82-26.25-4.58-1.81-.59-3.64-1.26-5.44-1.97-15.36-6.12-23.49-14.11-30.02-20.53l-1.8-1.76c-19.16-18.63-26.85-44.76-23.52-79.9,2.37-25.03,10.39-56.51,26-102.09,6.68-19.51,24.64-32.61,44.71-32.61,3.03,0,6.07.31,9.04.91l33.22,6.78c1.53-4.72,3.13-9.58,4.79-14.54,4.02-12.29,13.21-22.3,25.84-28.1,6.53-3,13.96-4.9,22.71-5.82,4.06-.43,8.54-.64,13.32-.64,8.93,0,19.25.75,30.67,2.23,32.19,4.18,73.05,14.05,115.04,27.78,26.84,8.78,52.37,18.56,74.73,28.57.27-2.26.87-4.52,1.83-6.71l5.91-13.39c3.59-8.13,10.06-14.41,17.9-17.86-1.58-11.8-3.01-24.41-4.27-37.65-1.28-12.62,3.41-25.12,13.23-35.08,4.8-4.88,10.83-9.19,18.42-13.16,10.07-5.28,23.73-10.32,40.58-14.99,31.05-8.6,72.27-15.82,116.08-20.33,30.04-3.1,59.62-4.73,85.55-4.73,11.55,0,22.4.32,32.23.96,17.45,1.13,31.84,3.28,42.78,6.4,8.24,2.35,15.02,5.33,20.72,9.13,11.66,7.77,18.81,19.06,20.12,31.8.15,1.42.22,2.88.21,4.33.38,3.5.75,6.98,1.09,10.41l29.61.35c23.32.28,43.02,18.49,45.81,42.36,5.6,47.85,6.77,80.32,3.78,105.28-4.19,35.05-17.24,58.96-39.9,73.1l-2.14,1.35c-7.74,4.89-17.37,10.98-33.68,13.7-1.9.32-3.83.58-5.73.77-3.14.32-6.35.49-9.52.49-9.59,0-19.07-1.45-28.29-4.31-1.13,1.62-2.27,3.22-3.43,4.79l-.34.46c-.55.83-1.19,1.6-1.9,2.3-3.91,3.83-9.53,10.51-14.49,20.78-6.67,25.42-17.48,38.92-18.71,40.4-.16.2-.33.39-.51.58-17.54,18.94-70.28,25.99-86.03,27.71-.52.06-1.04.08-1.56.08-.29,0-.57,0-.85-.03-10.37,1.5-21.23,2.26-32.36,2.26-8.01,0-16.34-.39-24.77-1.17-15.01-1.38-28.53-7.28-38.06-16.62-10.77-10.54-13.78-21.51-16.43-31.18-.11-.39-.22-.79-.33-1.19-.08-.14-.16-.29-.24-.43-1.21-2.25-2.86-4.24-5.02-6.09-.72-.62-1.38-1.31-1.97-2.05-1.7-2.16-4.6-4.46-7.67-6.89l-.47-.37c-.86-.51-1.66-1.1-2.4-1.78l-1.52-1.41c-.27-.23-.54-.46-.81-.69-.47-.41-.9-.84-1.3-1.29-11.34-10.76-21.4-22.46-30.38-35.34-.53,1.54-1.05,3.07-1.58,4.58,5.93,4.98,10.18,11.88,11.79,19.71l2.94,14.34c1.26,6.12.05,12.37-3.39,17.58-3.44,5.22-8.71,8.78-14.83,10.04-1.55.32-3.13.48-4.71.48-5.2,0-10.09-1.74-14.04-4.71-7.78,17.86-15.8,33.98-24.24,48.78-25.82,45.26-55.8,78.49-91.66,101.58l-1.11.72c-1.4.9-2.94,1.55-4.56,1.92l-1.29.3c-23.65,5.43-46.47,8.18-67.84,8.18ZM927.34,351.2c-1.96-16.72-15.58-29.46-31.7-29.66l-39.14-.47-3.43-.11c-.65-7.7-1.44-15.65-2.35-23.9.04-1.18,0-2.36-.12-3.53-.61-5.94-3.5-14.45-13.79-21.3-4.44-2.96-9.9-5.34-16.69-7.27-9.96-2.84-23.35-4.81-39.78-5.88-31.37-2.03-72.35-.71-115.38,3.73-43.03,4.44-83.42,11.5-113.71,19.89-15.87,4.39-28.57,9.06-37.74,13.87-6.25,3.28-11.11,6.72-14.85,10.52-8.65,8.79-9.76,17.69-9.16,23.63,1.85,19.42,3.93,36.11,6.12,50.55-8.7-.91-17.28,3.88-20.92,12.12l-5.91,13.4c-2.01,4.56.05,9.88,4.61,11.89,4.56,2.01,9.88-.05,11.89-4.61l5.91-13.4c.5-1.14,1.78-1.73,2.97-1.38l4.69,1.38c4.68,25.37,9.63,42.39,13.94,55.35.33,1,.68,1.96,1.02,2.95-7.78-6.81-18.69-14.1-32.48-21.69-27.68-15.24-65.59-31.04-106.75-44.51-41.16-13.47-81.09-23.12-112.42-27.19-16.44-2.13-30.11-2.66-40.63-1.55-7.16.75-13.12,2.25-18.22,4.59-11.47,5.26-16.24,13.59-18.21,19.6-3.12,9.31-5.97,18.12-8.6,26.51l-7.57-1.4-38.35-7.83c-15.79-3.23-31.81,6.35-37.27,22.27-15.23,44.47-23.03,74.94-25.29,98.79-2.89,30.52,3.4,52.84,19.22,68.23.64.62,1.26,1.23,1.86,1.82,6.19,6.09,12.59,12.38,25.26,17.43,1.51.6,3.04,1.16,4.59,1.66,10.64,3.48,22,4.65,33.41,3.47,2.55,14.04,6.22,27.53,11.03,40.57l.36.97.6.84c25.22,34.99,56.66,58.84,93.46,70.88,36.57,11.96,79.24,12.49,126.83,1.57l1.29-.3,1.11-.72c33.86-21.8,62.31-53.41,86.96-96.61,12.2-21.39,23.57-45.8,34.75-74.73l1.64-.12c1.24-.09,2.36.76,2.61,1.98l2.94,14.34c1,4.88,5.77,8.03,10.65,7.02,4.88-1,8.02-5.77,7.02-10.65l-2.94-14.34c-1.63-7.96-7.78-14.02-15.35-15.83,4.45-12.31,8.88-25.4,13.35-39.35.55-1.16,1.02-2.36,1.42-3.57.24-.74.47-1.54.68-2.39,12.09,23.07,26.98,42.83,44.99,59.74h-.08c.3.27.61.53.92.79.31.29.62.58.93.87l.75.69.62.32c4.05,3.23,8.4,6.47,11.52,10.45,3.25,2.77,6.14,6.13,8.34,10.2.3.56.61,1.07.92,1.56,2.82,9.96,4.56,19.06,13.47,27.79,7.33,7.17,17.9,11.53,29.33,12.58,20.04,1.85,39.11,1.42,57.13-1.52l-.47.4s61.78-6.71,77.03-23.18c0,0,10.15-12.21,16.18-36.12,5.77-12.37,12.53-20.76,18-26.12.05-.08.11-.16.16-.25l.57-.78c3.29-4.45,6.38-9.03,9.28-13.74l2.07.87c12.86,5.43,26.59,7.52,39.98,6.14,1.62-.17,3.23-.38,4.84-.65,13.44-2.25,21.03-7.04,28.37-11.68.72-.45,1.45-.92,2.21-1.39,18.73-11.69,29.6-32.17,33.24-62.61,2.84-23.79,1.67-55.22-3.79-101.9Z"/>
</svg>